<svg width="69" height="69" viewBox="0 0 69 69" fill="none" xmlns="http://www.w3.org/2000/svg">
<path d="M32.9997 54C27.6664 53.7223 23.1664 51.6667 19.4997 47.8334C15.8331 44 13.9997 39.3889 13.9997 34C13.9997 28.4445 15.9442 23.7223 19.8331 19.8334C23.722 15.9445 28.4442 14 33.9997 14C39.3886 14 43.9997 15.8334 47.8331 19.5C51.6664 23.1667 53.722 27.6945 53.9997 33.0834L48.7497 31.4167C48.1386 27.8611 46.472 24.9028 43.7497 22.5417C41.0275 20.1806 37.7775 19 33.9997 19C29.8331 19 26.2914 20.4584 23.3747 23.375C20.4581 26.2917 18.9997 29.8334 18.9997 34C18.9997 37.7223 20.1803 40.9584 22.5414 43.7084C24.9025 46.4584 27.8609 48.1389 31.4164 48.75L32.9997 54ZM36.9997 67.1667C36.4997 67.2223 35.9997 67.2639 35.4997 67.2917C34.9997 67.3195 34.4997 67.3334 33.9997 67.3334C29.3886 67.3334 25.0553 66.4584 20.9997 64.7084C16.9442 62.9584 13.4164 60.5834 10.4164 57.5834C7.41641 54.5834 5.04141 51.0556 3.29141 47C1.54141 42.9445 0.666412 38.6111 0.666412 34C0.666412 29.3889 1.54141 25.0556 3.29141 21C5.04141 16.9445 7.41641 13.4167 10.4164 10.4167C13.4164 7.4167 16.9442 5.0417 20.9997 3.2917C25.0553 1.5417 29.3886 0.666702 33.9997 0.666702C38.6109 0.666702 42.9442 1.5417 46.9997 3.2917C51.0553 5.0417 54.5831 7.4167 57.5831 10.4167C60.5831 13.4167 62.9581 16.9445 64.7081 21C66.4581 25.0556 67.3331 29.3889 67.3331 34C67.3331 34.5 67.3192 35 67.2914 35.5C67.2636 36 67.222 36.5 67.1664 37L62.3331 35.5V34C62.3331 26.1111 59.5831 19.4167 54.0831 13.9167C48.5831 8.4167 41.8886 5.6667 33.9997 5.6667C26.1109 5.6667 19.4164 8.4167 13.9164 13.9167C8.41641 19.4167 5.66641 26.1111 5.66641 34C5.66641 41.8889 8.41641 48.5834 13.9164 54.0834C19.4164 59.5834 26.1109 62.3334 33.9997 62.3334H35.4997L36.9997 67.1667ZM62.4164 69L48.1664 54.75L43.9997 67.3334L33.9997 34L67.3331 44L54.7497 48.1667L68.9997 62.4167L62.4164 69Z" fill="#1DE9B6"/>
</svg>
