<svg width="22" height="22" viewBox="0 0 22 22" fill="none" xmlns="http://www.w3.org/2000/svg">
<path d="M18.0001 7.99998L16.7501 5.24998L14.0001 3.99998L16.7501 2.74998L18.0001 -1.52588e-05L19.2501 2.74998L22.0001 3.99998L19.2501 5.24998L18.0001 7.99998ZM18.0001 22L16.7501 19.25L14.0001 18L16.7501 16.75L18.0001 14L19.2501 16.75L22.0001 18L19.2501 19.25L18.0001 22ZM8.00012 19L5.50012 13.5L0.00012207 11L5.50012 8.49998L8.00012 2.99998L10.5001 8.49998L16.0001 11L10.5001 13.5L8.00012 19ZM8.00012 14.15L9.00012 12L11.1501 11L9.00012 9.99998L8.00012 7.84998L7.00012 9.99998L4.85012 11L7.00012 12L8.00012 14.15Z" fill="#1C1B1F" fill-opacity="0.8"/>
</svg>
