<svg width="37" height="34" viewBox="0 0 37 34" fill="none" xmlns="http://www.w3.org/2000/svg">
<path d="M16.5007 30.9939C21.9125 31.547 32.9418 32.3909 33.8916 31.3541C34.8423 30.3163 32.6126 24.6621 31.3789 21.9647L33.7831 13.2131C30.6269 12.8951 23.9941 13.0439 22.7123 16.1832C21.1102 20.1073 19.7635 19.7698 18.3545 25.459C17.2627 29.8675 16.676 30.9759 16.5007 30.9939ZM16.5007 30.9939C16.4955 30.9934 16.4902 30.9928 16.485 30.9923C16.4898 30.9939 16.495 30.9945 16.5007 30.9939ZM21.4821 30.843C25.6627 31.2768 34.1825 31.9414 34.9151 31.1382C35.6485 30.3342 33.9211 25.947 32.9658 23.8539L34.8147 17.0687C32.3766 16.8192 27.2536 16.9286 26.2665 19.3621C25.0325 22.404 23.992 22.141 22.9089 26.552C22.0696 29.9701 21.6175 30.8292 21.4821 30.843ZM21.4821 30.843C21.4781 30.8426 21.474 30.8421 21.47 30.8417C21.4737 30.843 21.4777 30.8434 21.4821 30.843ZM26.1784 30.6685C29.1962 30.9901 35.346 31.4859 35.8736 30.9031C36.4016 30.3198 35.1485 27.1283 34.4558 25.6055L35.7802 20.6763C34.0202 20.4913 30.323 20.5631 29.6142 22.3305C28.7282 24.5398 27.9769 24.347 27.2017 27.5517C26.6011 30.0349 26.276 30.6587 26.1784 30.6685ZM26.1784 30.6685C26.1754 30.6682 26.1725 30.6679 26.1696 30.6676C26.1723 30.6685 26.1752 30.6688 26.1784 30.6685ZM8.76719 31.2873C16.0969 32.0357 31.0351 33.1777 32.3216 31.7736C33.6093 30.3683 30.5898 22.7118 28.9191 19.0592L32.1759 7.20809C27.9012 6.77772 18.9176 6.97978 17.1814 11.2309C15.0111 16.5449 13.1872 16.0879 11.2784 23.792C9.79926 29.7619 9.00455 31.2629 8.76719 31.2873ZM8.76719 31.2873C8.76008 31.2865 8.75298 31.2858 8.74588 31.2851C8.7524 31.2873 8.7595 31.288 8.76719 31.2873ZM1.02689 31.5547C10.2738 32.4959 29.1194 33.9305 30.7429 32.1604C32.3679 30.3885 28.5609 20.7385 26.4543 16.1349L30.5669 1.19551C25.174 0.654382 13.8403 0.91192 11.6486 6.27106C8.90885 12.97 6.60791 12.3945 4.19735 22.1062C2.32942 29.6317 1.32634 31.5239 1.02689 31.5547ZM1.02689 31.5547C1.01792 31.5538 1.00896 31.5529 1 31.552C1.00823 31.5548 1.01719 31.5557 1.02689 31.5547Z" stroke="url(#paint0_linear_616_3342)" stroke-width="0.8"/>
<defs>
<linearGradient id="paint0_linear_616_3342" x1="9.58173" y1="8" x2="33.0668" y2="33.2243" gradientUnits="userSpaceOnUse">
<stop stop-color="#00FF94"/>
<stop offset="0.260417" stop-color="#48CFEC"/>
<stop offset="0.541667" stop-color="#E300FF"/>
<stop offset="0.916667" stop-color="#F9AF28"/>
</linearGradient>
</defs>
</svg>
