<svg width="74" height="51" viewBox="0 0 74 51" fill="none" xmlns="http://www.w3.org/2000/svg">
<path d="M37.0101 39.5C40.948 39.5 44.292 38.1217 47.042 35.3651C49.792 32.6086 51.167 29.2614 51.167 25.3235C51.167 21.3856 49.7887 18.0416 47.0321 15.2916C44.2756 12.5416 40.9284 11.1666 36.9905 11.1666C33.0526 11.1666 29.7086 12.5449 26.9586 15.3015C24.2086 18.058 22.8336 21.4052 22.8336 25.3431C22.8336 29.281 24.2119 32.625 26.9685 35.375C29.725 38.125 33.0722 39.5 37.0101 39.5ZM36.9807 34.6666C34.3826 34.6666 32.1808 33.7573 30.3753 31.9387C28.5697 30.12 27.667 27.9117 27.667 25.3137C27.667 22.7157 28.5763 20.5139 30.3949 18.7083C32.2135 16.9027 34.4219 16 37.0199 16C39.6179 16 41.8197 16.9093 43.6253 18.7279C45.4308 20.5465 46.3336 22.7549 46.3336 25.3529C46.3336 27.9509 45.4243 30.1527 43.6057 31.9583C41.787 33.7639 39.5787 34.6666 36.9807 34.6666ZM37.0003 50.3333C28.8892 50.3333 21.5558 48.0277 15.0003 43.4166C8.44473 38.8055 3.55584 32.7777 0.333618 25.3333C3.55584 17.8889 8.44473 11.8611 15.0003 7.24996C21.5558 2.63885 28.8892 0.333298 37.0003 0.333298C45.1114 0.333298 52.4447 2.63885 59.0003 7.24996C65.5558 11.8611 70.4447 17.8889 73.667 25.3333C70.4447 32.7777 65.5558 38.8055 59.0003 43.4166C52.4447 48.0277 45.1114 50.3333 37.0003 50.3333ZM36.9862 45.3333C43.7178 45.3333 49.9031 43.5139 55.542 39.875C61.1808 36.2361 65.4725 31.3889 68.417 25.3333C65.4725 19.2777 61.1855 14.4305 55.556 10.7916C49.9265 7.15274 43.7459 5.3333 37.0144 5.3333C30.2828 5.3333 24.0975 7.15274 18.4586 10.7916C12.8197 14.4305 8.50029 19.2777 5.50029 25.3333C8.50029 31.3889 12.815 36.2361 18.4445 39.875C24.0741 43.5139 30.2546 45.3333 36.9862 45.3333Z" fill="#1DE9B6"/>
</svg>
